<?xml version="1.0" encoding="UTF-8" standalone="no"?>
<!DOCTYPE svg PUBLIC "-//W3C//DTD SVG 1.1//EN"
 "http://www.w3.org/Graphics/SVG/1.1/DTD/svg11.dtd">
<!-- Generated by graphviz version 2.36.0 (20140111.2315)
 -->
<!-- Title: start Pages: 1 -->
<svg width="2892pt" height="2891pt"
 viewBox="0.00 0.00 2891.60 2890.97" xmlns="http://www.w3.org/2000/svg" xmlns:xlink="http://www.w3.org/1999/xlink">
<g id="graph0" class="graph" transform="scale(1 1) rotate(0) translate(4 2886.97)">
<title>start</title>
<polygon fill="white" stroke="none" points="-4,4 -4,-2886.97 2887.6,-2886.97 2887.6,4 -4,4"/>
<!-- Bowstring -->
<g id="node1" class="node"><title>Bowstring</title>
<ellipse fill="black" stroke="black" cx="1441.8" cy="-1441.48" rx="1.8" ry="1.8"/>
</g>
<!-- Bowstring&#45;&gt;Bowstring -->
<g id="edge84" class="edge"><title>Bowstring&#45;&gt;Bowstring</title>
<path fill="none" stroke="black" d="M1443.57,-1442.8C1684.75,-1621.48 2163.6,-1621.04 2163.6,-1441.48 2163.6,-1262.98 1690.34,-1261.5 1447.83,-1437.05"/>
<polygon fill="black" stroke="black" points="1446.57,-1435.8 1443.57,-1440.17 1448.63,-1438.63 1446.57,-1435.8"/>
</g>
<!-- Bowstring&#45;&gt;Bowstring -->
<g id="edge85" class="edge"><title>Bowstring&#45;&gt;Bowstring</title>
<path fill="none" stroke="black" d="M1443.56,-1442.8C1924.75,-1801.48 2883.6,-1801.04 2883.6,-1441.48 2883.6,-1082.98 1930.36,-1081.49 1447.8,-1437.02"/>
<polygon fill="black" stroke="black" points="1446.54,-1435.78 1443.56,-1440.17 1448.62,-1438.6 1446.54,-1435.78"/>
</g>
<!-- Tied&#45;arch_bridge -->
<g id="node2" class="node"><title>Tied&#45;arch_bridge</title>
<ellipse fill="black" stroke="black" cx="2880.54" cy="-1501.79" rx="1.8" ry="1.8"/>
</g>
<!-- Bowstring&#45;&gt;Tied&#45;arch_bridge -->
<g id="edge1" class="edge"><title>Bowstring&#45;&gt;Tied&#45;arch_bridge</title>
<path fill="none" stroke="black" d="M1443.76,-1441.57C1500.5,-1443.94 2768.33,-1497.08 2873.59,-1501.49"/>
<polygon fill="black" stroke="black" points="2873.59,-1503.25 2878.66,-1501.71 2873.73,-1499.75 2873.59,-1503.25"/>
</g>
<!-- Bowstring,_Minnesota -->
<g id="node3" class="node"><title>Bowstring,_Minnesota</title>
<ellipse fill="black" stroke="black" cx="2870.45" cy="-1621.96" rx="1.8" ry="1.8"/>
</g>
<!-- Bowstring&#45;&gt;Bowstring,_Minnesota -->
<g id="edge2" class="edge"><title>Bowstring&#45;&gt;Bowstring,_Minnesota</title>
<path fill="none" stroke="black" d="M1443.75,-1441.73C1500.09,-1448.85 2759.03,-1607.89 2863.55,-1621.09"/>
<polygon fill="black" stroke="black" points="2863.4,-1622.84 2868.58,-1621.73 2863.84,-1619.37 2863.4,-1622.84"/>
</g>
<!-- Bow_and_arrow -->
<g id="node4" class="node"><title>Bow_and_arrow</title>
<ellipse fill="black" stroke="black" cx="2850.33" cy="-1740.88" rx="1.8" ry="1.8"/>
</g>
<!-- Bowstring&#45;&gt;Bow_and_arrow -->
<g id="edge3" class="edge"><title>Bowstring&#45;&gt;Bow_and_arrow</title>
<path fill="none" stroke="black" d="M1443.72,-1441.89C1499.26,-1453.7 2740.48,-1717.53 2843.54,-1739.43"/>
<polygon fill="black" stroke="black" points="2843.24,-1741.16 2848.49,-1740.49 2843.96,-1737.73 2843.24,-1741.16"/>
</g>
<!-- Bowstring&#45;&gt;Bow_and_arrow -->
<g id="edge42" class="edge"><title>Bowstring&#45;&gt;Bow_and_arrow</title>
<path fill="none" stroke="black" d="M1443.72,-1441.89C1499.26,-1453.7 2740.48,-1717.53 2843.54,-1739.43"/>
<polygon fill="black" stroke="black" points="2843.24,-1741.16 2848.49,-1740.49 2843.96,-1737.73 2843.24,-1741.16"/>
</g>
<!-- Arrow -->
<g id="node5" class="node"><title>Arrow</title>
<ellipse fill="black" stroke="black" cx="2820.34" cy="-1857.69" rx="1.8" ry="1.8"/>
</g>
<!-- Bowstring&#45;&gt;Arrow -->
<g id="edge4" class="edge"><title>Bowstring&#45;&gt;Arrow</title>
<path fill="none" stroke="black" d="M1443.68,-1442.05C1498.04,-1458.46 2712.83,-1825.23 2813.69,-1855.68"/>
<polygon fill="black" stroke="black" points="2813.25,-1857.38 2818.54,-1857.15 2814.26,-1854.03 2813.25,-1857.38"/>
</g>
<!-- Bowstring&#45;&gt;Arrow -->
<g id="edge61" class="edge"><title>Bowstring&#45;&gt;Arrow</title>
<path fill="none" stroke="black" d="M1443.68,-1442.05C1498.04,-1458.46 2712.83,-1825.23 2813.69,-1855.68"/>
<polygon fill="black" stroke="black" points="2813.25,-1857.38 2818.54,-1857.15 2814.26,-1854.03 2813.25,-1857.38"/>
</g>
<!-- Abrasion_(mechanical) -->
<g id="node6" class="node"><title>Abrasion_(mechanical)</title>
<ellipse fill="black" stroke="black" cx="2780.68" cy="-1971.58" rx="1.8" ry="1.8"/>
</g>
<!-- Bowstring&#45;&gt;Abrasion_(mechanical) -->
<g id="edge5" class="edge"><title>Bowstring&#45;&gt;Abrasion_(mechanical)</title>
<path fill="none" stroke="black" d="M1443.63,-1442.21C1496.42,-1463.11 2676.26,-1930.24 2774.22,-1969.03"/>
<polygon fill="black" stroke="black" points="2773.63,-1970.68 2778.93,-1970.89 2774.92,-1967.42 2773.63,-1970.68"/>
</g>
<!-- Mass -->
<g id="node7" class="node"><title>Mass</title>
<ellipse fill="black" stroke="black" cx="2731.62" cy="-2081.76" rx="1.8" ry="1.8"/>
</g>
<!-- Bowstring&#45;&gt;Mass -->
<g id="edge6" class="edge"><title>Bowstring&#45;&gt;Mass</title>
<path fill="none" stroke="black" d="M1443.56,-1442.36C1494.42,-1467.61 2631.03,-2031.82 2725.4,-2078.67"/>
<polygon fill="black" stroke="black" points="2724.68,-2080.27 2729.94,-2080.92 2726.24,-2077.13 2724.68,-2080.27"/>
</g>
<!-- Fiber -->
<g id="node8" class="node"><title>Fiber</title>
<ellipse fill="black" stroke="black" cx="2673.52" cy="-2187.44" rx="1.8" ry="1.8"/>
</g>
<!-- Bowstring&#45;&gt;Fiber -->
<g id="edge7" class="edge"><title>Bowstring&#45;&gt;Fiber</title>
<path fill="none" stroke="black" d="M1443.48,-1442.5C1492.05,-1471.92 2577.46,-2129.27 2667.58,-2183.84"/>
<polygon fill="black" stroke="black" points="2666.73,-2185.37 2671.91,-2186.47 2668.54,-2182.38 2666.73,-2185.37"/>
</g>
<!-- Knot -->
<g id="node9" class="node"><title>Knot</title>
<ellipse fill="black" stroke="black" cx="2606.78" cy="-2287.89" rx="1.8" ry="1.8"/>
</g>
<!-- Bowstring&#45;&gt;Knot -->
<g id="edge8" class="edge"><title>Bowstring&#45;&gt;Knot</title>
<path fill="none" stroke="black" d="M1443.39,-1442.64C1489.33,-1476.02 2515.93,-2221.88 2601.16,-2283.81"/>
<polygon fill="black" stroke="black" points="2600.19,-2285.27 2605.26,-2286.79 2602.25,-2282.43 2600.19,-2285.27"/>
</g>
<!-- Linen -->
<g id="node10" class="node"><title>Linen</title>
<ellipse fill="black" stroke="black" cx="2531.87" cy="-2382.41" rx="1.8" ry="1.8"/>
</g>
<!-- Bowstring&#45;&gt;Linen -->
<g id="edge9" class="edge"><title>Bowstring&#45;&gt;Linen</title>
<path fill="none" stroke="black" d="M1443.29,-1442.77C1486.23,-1479.83 2444.95,-2307.38 2526.37,-2377.66"/>
<polygon fill="black" stroke="black" points="2525.52,-2379.24 2530.45,-2381.18 2527.81,-2376.59 2525.52,-2379.24"/>
</g>
<!-- Bowstring&#45;&gt;Linen -->
<g id="edge14" class="edge"><title>Bowstring&#45;&gt;Linen</title>
<path fill="none" stroke="black" d="M1443.29,-1442.77C1486.23,-1479.83 2444.95,-2307.38 2526.37,-2377.66"/>
<polygon fill="black" stroke="black" points="2525.52,-2379.24 2530.45,-2381.18 2527.81,-2376.59 2525.52,-2379.24"/>
</g>
<!-- Hemp -->
<g id="node11" class="node"><title>Hemp</title>
<ellipse fill="black" stroke="black" cx="2449.32" cy="-2470.32" rx="1.8" ry="1.8"/>
</g>
<!-- Bowstring&#45;&gt;Hemp -->
<g id="edge10" class="edge"><title>Bowstring&#45;&gt;Hemp</title>
<path fill="none" stroke="black" d="M1443.18,-1442.89C1482.86,-1483.42 2368.96,-2388.27 2444.23,-2465.13"/>
<polygon fill="black" stroke="black" points="2443,-2466.38 2447.75,-2468.73 2445.5,-2463.93 2443,-2466.38"/>
</g>
<!-- Bowstring&#45;&gt;Hemp -->
<g id="edge15" class="edge"><title>Bowstring&#45;&gt;Hemp</title>
<path fill="none" stroke="black" d="M1443.18,-1442.89C1482.86,-1483.42 2368.96,-2388.27 2444.23,-2465.13"/>
<polygon fill="black" stroke="black" points="2443,-2466.38 2447.75,-2468.73 2445.5,-2463.93 2443,-2466.38"/>
</g>
<!-- Nock -->
<g id="node12" class="node"><title>Nock</title>
<ellipse fill="black" stroke="black" cx="2359.69" cy="-2551.02" rx="1.8" ry="1.8"/>
</g>
<!-- Bowstring&#45;&gt;Nock -->
<g id="edge11" class="edge"><title>Bowstring&#45;&gt;Nock</title>
<path fill="none" stroke="black" d="M1443.05,-1443C1479.21,-1486.71 2286.49,-2462.54 2355.06,-2545.42"/>
<polygon fill="black" stroke="black" points="2353.96,-2546.84 2358.49,-2549.57 2356.65,-2544.6 2353.96,-2546.84"/>
</g>
<!-- Timber_hitch -->
<g id="node13" class="node"><title>Timber_hitch</title>
<ellipse fill="black" stroke="black" cx="2263.63" cy="-2623.94" rx="1.8" ry="1.8"/>
</g>
<!-- Bowstring&#45;&gt;Timber_hitch -->
<g id="edge12" class="edge"><title>Bowstring&#45;&gt;Timber_hitch</title>
<path fill="none" stroke="black" d="M1442.92,-1443.1C1475.33,-1489.73 2199.53,-2531.72 2259.66,-2618.23"/>
<polygon fill="black" stroke="black" points="2258.26,-2619.29 2262.55,-2622.39 2261.14,-2617.29 2258.26,-2619.29"/>
</g>
<!-- Ky%C5%ABd%C5%8D -->
<g id="node14" class="node"><title>Ky%C5%ABd%C5%8D</title>
<ellipse fill="black" stroke="black" cx="2161.8" cy="-2688.56" rx="1.8" ry="1.8"/>
</g>
<!-- Bowstring&#45;&gt;Ky%C5%ABd%C5%8D -->
<g id="edge13" class="edge"><title>Bowstring&#45;&gt;Ky%C5%ABd%C5%8D</title>
<path fill="none" stroke="black" d="M1442.78,-1443.19C1471.17,-1492.36 2105.65,-2591.3 2158.33,-2682.54"/>
<polygon fill="black" stroke="black" points="2156.84,-2683.48 2160.86,-2686.93 2159.87,-2681.73 2156.84,-2683.48"/>
</g>
<!-- Sinew -->
<g id="node15" class="node"><title>Sinew</title>
<ellipse fill="black" stroke="black" cx="2054.92" cy="-2744.44" rx="1.8" ry="1.8"/>
</g>
<!-- Bowstring&#45;&gt;Sinew -->
<g id="edge16" class="edge"><title>Bowstring&#45;&gt;Sinew</title>
<path fill="none" stroke="black" d="M1442.64,-1443.26C1466.81,-1494.64 2007.11,-2642.82 2051.96,-2738.15"/>
<polygon fill="black" stroke="black" points="2050.41,-2738.95 2054.12,-2742.73 2053.58,-2737.46 2050.41,-2738.95"/>
</g>
<!-- Silk -->
<g id="node16" class="node"><title>Silk</title>
<ellipse fill="black" stroke="black" cx="1943.74" cy="-2791.17" rx="1.8" ry="1.8"/>
</g>
<!-- Bowstring&#45;&gt;Silk -->
<g id="edge17" class="edge"><title>Bowstring&#45;&gt;Silk</title>
<path fill="none" stroke="black" d="M1442.49,-1443.33C1462.28,-1496.55 1904.6,-2685.91 1941.32,-2784.66"/>
<polygon fill="black" stroke="black" points="1939.7,-2785.33 1943.09,-2789.41 1942.98,-2784.11 1939.7,-2785.33"/>
</g>
<!-- Rawhide_(textile) -->
<g id="node17" class="node"><title>Rawhide_(textile)</title>
<ellipse fill="black" stroke="black" cx="1829.04" cy="-2828.44" rx="1.8" ry="1.8"/>
</g>
<!-- Bowstring&#45;&gt;Rawhide_(textile) -->
<g id="edge18" class="edge"><title>Bowstring&#45;&gt;Rawhide_(textile)</title>
<path fill="none" stroke="black" d="M1442.33,-1443.38C1457.6,-1498.07 1798.84,-2720.27 1827.18,-2821.75"/>
<polygon fill="black" stroke="black" points="1825.51,-2822.28 1828.54,-2826.63 1828.88,-2821.34 1825.51,-2822.28"/>
</g>
<!-- Recurve_bow -->
<g id="node18" class="node"><title>Recurve_bow</title>
<ellipse fill="black" stroke="black" cx="1711.63" cy="-2855.98" rx="1.8" ry="1.8"/>
</g>
<!-- Bowstring&#45;&gt;Recurve_bow -->
<g id="edge19" class="edge"><title>Bowstring&#45;&gt;Recurve_bow</title>
<path fill="none" stroke="black" d="M1442.17,-1443.41C1452.81,-1499.19 1690.59,-2745.66 1710.33,-2849.15"/>
<polygon fill="black" stroke="black" points="1708.62,-2849.55 1711.28,-2854.13 1712.06,-2848.89 1708.62,-2849.55"/>
</g>
<!-- Bowstring&#45;&gt;Recurve_bow -->
<g id="edge57" class="edge"><title>Bowstring&#45;&gt;Recurve_bow</title>
<path fill="none" stroke="black" d="M1442.17,-1443.41C1452.81,-1499.19 1690.59,-2745.66 1710.33,-2849.15"/>
<polygon fill="black" stroke="black" points="1708.62,-2849.55 1711.28,-2854.13 1712.06,-2848.89 1708.62,-2849.55"/>
</g>
<!-- Compound_bow -->
<g id="node19" class="node"><title>Compound_bow</title>
<ellipse fill="black" stroke="black" cx="1592.32" cy="-2873.6" rx="1.8" ry="1.8"/>
</g>
<!-- Bowstring&#45;&gt;Compound_bow -->
<g id="edge20" class="edge"><title>Bowstring&#45;&gt;Compound_bow</title>
<path fill="none" stroke="black" d="M1442.01,-1443.44C1447.94,-1499.91 1580.58,-2761.91 1591.59,-2866.69"/>
<polygon fill="black" stroke="black" points="1589.86,-2866.93 1592.12,-2871.72 1593.34,-2866.57 1589.86,-2866.93"/>
</g>
<!-- Bowstring&#45;&gt;Compound_bow -->
<g id="edge48" class="edge"><title>Bowstring&#45;&gt;Compound_bow</title>
<path fill="none" stroke="black" d="M1442.01,-1443.44C1447.94,-1499.91 1580.58,-2761.91 1591.59,-2866.69"/>
<polygon fill="black" stroke="black" points="1589.86,-2866.93 1592.12,-2871.72 1593.34,-2866.57 1589.86,-2866.93"/>
</g>
<!-- Composite_bow -->
<g id="node20" class="node"><title>Composite_bow</title>
<ellipse fill="black" stroke="black" cx="1471.96" cy="-2881.17" rx="1.8" ry="1.8"/>
</g>
<!-- Bowstring&#45;&gt;Composite_bow -->
<g id="edge21" class="edge"><title>Bowstring&#45;&gt;Composite_bow</title>
<path fill="none" stroke="black" d="M1441.84,-1443.45C1443.03,-1500.22 1469.61,-2768.89 1471.81,-2874.22"/>
<polygon fill="black" stroke="black" points="1470.06,-2874.32 1471.92,-2879.29 1473.56,-2874.25 1470.06,-2874.32"/>
</g>
<!-- Bowstring&#45;&gt;Composite_bow -->
<g id="edge47" class="edge"><title>Bowstring&#45;&gt;Composite_bow</title>
<path fill="none" stroke="black" d="M1441.84,-1443.45C1443.03,-1500.22 1469.61,-2768.89 1471.81,-2874.22"/>
<polygon fill="black" stroke="black" points="1470.06,-2874.32 1471.92,-2879.29 1473.56,-2874.25 1470.06,-2874.32"/>
</g>
<!-- Polyethylene_terephthalate -->
<g id="node21" class="node"><title>Polyethylene_terephthalate</title>
<ellipse fill="black" stroke="black" cx="1351.38" cy="-2878.64" rx="1.8" ry="1.8"/>
</g>
<!-- Bowstring&#45;&gt;Polyethylene_terephthalate -->
<g id="edge22" class="edge"><title>Bowstring&#45;&gt;Polyethylene_terephthalate</title>
<path fill="none" stroke="black" d="M1441.68,-1443.45C1438.11,-1500.12 1358.43,-2766.56 1351.82,-2871.71"/>
<polygon fill="black" stroke="black" points="1350.07,-2871.66 1351.5,-2876.76 1353.56,-2871.88 1350.07,-2871.66"/>
</g>
<!-- Liquid_crystal_polymer -->
<g id="node22" class="node"><title>Liquid_crystal_polymer</title>
<ellipse fill="black" stroke="black" cx="1231.44" cy="-2866.04" rx="1.8" ry="1.8"/>
</g>
<!-- Bowstring&#45;&gt;Liquid_crystal_polymer -->
<g id="edge23" class="edge"><title>Bowstring&#45;&gt;Liquid_crystal_polymer</title>
<path fill="none" stroke="black" d="M1441.51,-1443.43C1433.22,-1499.6 1247.85,-2754.94 1232.46,-2859.16"/>
<polygon fill="black" stroke="black" points="1230.71,-2858.97 1231.72,-2864.17 1234.18,-2859.48 1230.71,-2858.97"/>
</g>
<!-- Kevlar -->
<g id="node23" class="node"><title>Kevlar</title>
<ellipse fill="black" stroke="black" cx="1112.97" cy="-2843.44" rx="1.8" ry="1.8"/>
</g>
<!-- Bowstring&#45;&gt;Kevlar -->
<g id="edge24" class="edge"><title>Bowstring&#45;&gt;Kevlar</title>
<path fill="none" stroke="black" d="M1441.35,-1443.4C1428.38,-1498.68 1138.62,-2734.1 1114.56,-2836.67"/>
<polygon fill="black" stroke="black" points="1112.84,-2836.34 1113.4,-2841.61 1116.25,-2837.14 1112.84,-2836.34"/>
</g>
<!-- Vectran -->
<g id="node24" class="node"><title>Vectran</title>
<ellipse fill="black" stroke="black" cx="996.816" cy="-2811.01" rx="1.8" ry="1.8"/>
</g>
<!-- Bowstring&#45;&gt;Vectran -->
<g id="edge25" class="edge"><title>Bowstring&#45;&gt;Vectran</title>
<path fill="none" stroke="black" d="M1441.19,-1443.35C1423.65,-1497.36 1031.52,-2704.2 998.963,-2804.4"/>
<polygon fill="black" stroke="black" points="997.278,-2803.92 997.397,-2809.22 1000.61,-2805 997.278,-2803.92"/>
</g>
<!-- Polymer -->
<g id="node25" class="node"><title>Polymer</title>
<ellipse fill="black" stroke="black" cx="883.778" cy="-2768.97" rx="1.8" ry="1.8"/>
</g>
<!-- Bowstring&#45;&gt;Polymer -->
<g id="edge26" class="edge"><title>Bowstring&#45;&gt;Polymer</title>
<path fill="none" stroke="black" d="M1441.04,-1443.3C1419.03,-1495.64 927.297,-2665.44 886.47,-2762.56"/>
<polygon fill="black" stroke="black" points="884.831,-2761.94 884.507,-2767.23 888.058,-2763.3 884.831,-2761.94"/>
</g>
<!-- Ultra&#45;high&#45;molecular&#45;weight_polyethylene -->
<g id="node26" class="node"><title>Ultra&#45;high&#45;molecular&#45;weight_polyethylene</title>
<ellipse fill="black" stroke="black" cx="774.654" cy="-2717.62" rx="1.8" ry="1.8"/>
</g>
<!-- Bowstring&#45;&gt;Ultra&#45;high&#45;molecular&#45;weight_polyethylene -->
<g id="edge27" class="edge"><title>Bowstring&#45;&gt;Ultra&#45;high&#45;molecular&#45;weight_polyethylene</title>
<path fill="none" stroke="black" d="M1440.89,-1443.23C1414.58,-1493.55 826.684,-2618.09 777.873,-2711.46"/>
<polygon fill="black" stroke="black" points="776.292,-2710.71 775.526,-2715.95 779.393,-2712.33 776.292,-2710.71"/>
</g>
<!-- Archery -->
<g id="node27" class="node"><title>Archery</title>
<ellipse fill="black" stroke="black" cx="670.209" cy="-2657.32" rx="1.8" ry="1.8"/>
</g>
<!-- Bowstring&#45;&gt;Archery -->
<g id="edge28" class="edge"><title>Bowstring&#45;&gt;Archery</title>
<path fill="none" stroke="black" d="M1440.75,-1443.14C1410.32,-1491.09 730.385,-2562.5 673.932,-2651.45"/>
<polygon fill="black" stroke="black" points="672.42,-2650.57 671.218,-2655.73 675.375,-2652.44 672.42,-2650.57"/>
</g>
<!-- Bowstring&#45;&gt;Archery -->
<g id="edge33" class="edge"><title>Bowstring&#45;&gt;Archery</title>
<path fill="none" stroke="black" d="M1440.75,-1443.14C1410.32,-1491.09 730.385,-2562.5 673.932,-2651.45"/>
<polygon fill="black" stroke="black" points="672.42,-2650.57 671.218,-2655.73 675.375,-2652.44 672.42,-2650.57"/>
</g>
<!-- Bow_(weapon) -->
<g id="node28" class="node"><title>Bow_(weapon)</title>
<ellipse fill="black" stroke="black" cx="571.177" cy="-2588.49" rx="1.8" ry="1.8"/>
</g>
<!-- Bowstring&#45;&gt;Bow_(weapon) -->
<g id="edge29" class="edge"><title>Bowstring&#45;&gt;Bow_(weapon)</title>
<path fill="none" stroke="black" d="M1440.61,-1443.05C1406.28,-1488.28 639.076,-2499.03 575.378,-2582.95"/>
<polygon fill="black" stroke="black" points="573.945,-2581.95 572.315,-2586.99 576.732,-2584.06 573.945,-2581.95"/>
</g>
<!-- Fistmele -->
<g id="node29" class="node"><title>Fistmele</title>
<ellipse fill="black" stroke="black" cx="478.252" cy="-2511.61" rx="1.8" ry="1.8"/>
</g>
<!-- Bowstring&#45;&gt;Fistmele -->
<g id="edge30" class="edge"><title>Bowstring&#45;&gt;Fistmele</title>
<path fill="none" stroke="black" d="M1440.48,-1442.94C1402.53,-1485.1 555.09,-2426.28 483.114,-2506.21"/>
<polygon fill="black" stroke="black" points="481.557,-2505.33 479.512,-2510.21 484.158,-2507.67 481.557,-2505.33"/>
</g>
<!-- Garrote -->
<g id="node30" class="node"><title>Garrote</title>
<ellipse fill="black" stroke="black" cx="392.085" cy="-2427.23" rx="1.8" ry="1.8"/>
</g>
<!-- Bowstring&#45;&gt;Garrote -->
<g id="edge31" class="edge"><title>Bowstring&#45;&gt;Garrote</title>
<path fill="none" stroke="black" d="M1440.37,-1442.83C1399.02,-1481.66 475.802,-2348.62 397.383,-2422.26"/>
<polygon fill="black" stroke="black" points="396.163,-2421 393.716,-2425.7 398.559,-2423.55 396.163,-2421"/>
</g>
<!-- Template_talk:Archery -->
<g id="node31" class="node"><title>Template_talk:Archery</title>
<ellipse fill="black" stroke="black" cx="313.281" cy="-2335.94" rx="1.8" ry="1.8"/>
</g>
<!-- Bowstring&#45;&gt;Template_talk:Archery -->
<g id="edge32" class="edge"><title>Bowstring&#45;&gt;Template_talk:Archery</title>
<path fill="none" stroke="black" d="M1440.26,-1442.71C1395.8,-1477.94 403.275,-2264.61 318.976,-2331.42"/>
<polygon fill="black" stroke="black" points="317.588,-2330.29 314.757,-2334.77 319.762,-2333.03 317.588,-2330.29"/>
</g>
<!-- History_of_archery -->
<g id="node32" class="node"><title>History_of_archery</title>
<ellipse fill="black" stroke="black" cx="242.393" cy="-2238.37" rx="1.8" ry="1.8"/>
</g>
<!-- Bowstring&#45;&gt;History_of_archery -->
<g id="edge34" class="edge"><title>Bowstring&#45;&gt;History_of_archery</title>
<path fill="none" stroke="black" d="M1440.16,-1442.57C1392.87,-1474 335.933,-2176.22 248.181,-2234.52"/>
<polygon fill="black" stroke="black" points="247.158,-2233.1 243.961,-2237.33 249.094,-2236.02 247.158,-2233.1"/>
</g>
<!-- Chinese_archery -->
<g id="node33" class="node"><title>Chinese_archery</title>
<ellipse fill="black" stroke="black" cx="179.918" cy="-2135.21" rx="1.8" ry="1.8"/>
</g>
<!-- Bowstring&#45;&gt;Chinese_archery -->
<g id="edge35" class="edge"><title>Bowstring&#45;&gt;Chinese_archery</title>
<path fill="none" stroke="black" d="M1440.08,-1442.43C1390.32,-1469.79 278.331,-2081.11 186.007,-2131.86"/>
<polygon fill="black" stroke="black" points="185.106,-2130.36 181.568,-2134.3 186.793,-2133.43 185.106,-2130.36"/>
</g>
<!-- Turkish_archery -->
<g id="node34" class="node"><title>Turkish_archery</title>
<ellipse fill="black" stroke="black" cx="126.295" cy="-2027.18" rx="1.8" ry="1.8"/>
</g>
<!-- Bowstring&#45;&gt;Turkish_archery -->
<g id="edge36" class="edge"><title>Bowstring&#45;&gt;Turkish_archery</title>
<path fill="none" stroke="black" d="M1440,-1442.28C1388.13,-1465.38 228.889,-1981.51 132.642,-2024.36"/>
<polygon fill="black" stroke="black" points="131.87,-2022.79 128.014,-2026.42 133.294,-2025.98 131.87,-2022.79"/>
</g>
<!-- History_of_crossbows -->
<g id="node35" class="node"><title>History_of_crossbows</title>
<ellipse fill="black" stroke="black" cx="81.898" cy="-1915.05" rx="1.8" ry="1.8"/>
</g>
<!-- Bowstring&#45;&gt;History_of_crossbows -->
<g id="edge37" class="edge"><title>Bowstring&#45;&gt;History_of_crossbows</title>
<path fill="none" stroke="black" d="M1439.94,-1442.13C1386.32,-1460.8 187.955,-1878.12 88.4596,-1912.77"/>
<polygon fill="black" stroke="black" points="87.8222,-1911.14 83.6758,-1914.43 88.9732,-1914.44 87.8222,-1911.14"/>
</g>
<!-- Modern_competitive_archery -->
<g id="node36" class="node"><title>Modern_competitive_archery</title>
<ellipse fill="black" stroke="black" cx="47.0402" cy="-1799.6" rx="1.8" ry="1.8"/>
</g>
<!-- Bowstring&#45;&gt;Modern_competitive_archery -->
<g id="edge38" class="edge"><title>Bowstring&#45;&gt;Modern_competitive_archery</title>
<path fill="none" stroke="black" d="M1439.9,-1441.97C1384.9,-1456.09 155.816,-1771.67 53.77,-1797.87"/>
<polygon fill="black" stroke="black" points="53.2713,-1796.19 48.8636,-1799.13 54.1418,-1799.58 53.2713,-1796.19"/>
</g>
<!-- World_Archery_Federation -->
<g id="node37" class="node"><title>World_Archery_Federation</title>
<ellipse fill="black" stroke="black" cx="21.9657" cy="-1681.63" rx="1.8" ry="1.8"/>
</g>
<!-- Bowstring&#45;&gt;World_Archery_Federation -->
<g id="edge39" class="edge"><title>Bowstring&#45;&gt;World_Archery_Federation</title>
<path fill="none" stroke="black" d="M1439.86,-1441.81C1383.87,-1451.28 132.697,-1662.9 28.8164,-1680.47"/>
<polygon fill="black" stroke="black" points="28.46,-1678.76 23.8218,-1681.32 29.0437,-1682.21 28.46,-1678.76"/>
</g>
<!-- World_Archery_Rankings -->
<g id="node38" class="node"><title>World_Archery_Rankings</title>
<ellipse fill="black" stroke="black" cx="6.85028" cy="-1561.98" rx="1.8" ry="1.8"/>
</g>
<!-- Bowstring&#45;&gt;World_Archery_Rankings -->
<g id="edge40" class="edge"><title>Bowstring&#45;&gt;World_Archery_Rankings</title>
<path fill="none" stroke="black" d="M1439.84,-1441.65C1383.26,-1446.4 118.76,-1552.58 13.7739,-1561.4"/>
<polygon fill="black" stroke="black" points="13.5622,-1559.66 8.72618,-1561.82 13.8551,-1563.15 13.5622,-1559.66"/>
</g>
<!-- Archer%27s_paradox -->
<g id="node39" class="node"><title>Archer%27s_paradox</title>
<ellipse fill="black" stroke="black" cx="1.8" cy="-1441.48" rx="1.8" ry="1.8"/>
</g>
<!-- Bowstring&#45;&gt;Archer%27s_paradox -->
<g id="edge41" class="edge"><title>Bowstring&#45;&gt;Archer%27s_paradox</title>
<path fill="none" stroke="black" d="M1439.83,-1441.48C1383.05,-1441.48 114.104,-1441.48 8.74801,-1441.48"/>
<polygon fill="black" stroke="black" points="8.68253,-1439.73 3.6825,-1441.48 8.68247,-1443.23 8.68253,-1439.73"/>
</g>
<!-- Mounted_archery -->
<g id="node40" class="node"><title>Mounted_archery</title>
<ellipse fill="black" stroke="black" cx="6.85028" cy="-1320.99" rx="1.8" ry="1.8"/>
</g>
<!-- Bowstring&#45;&gt;Mounted_archery -->
<g id="edge43" class="edge"><title>Bowstring&#45;&gt;Mounted_archery</title>
<path fill="none" stroke="black" d="M1439.84,-1441.32C1383.26,-1436.57 118.76,-1330.39 13.7739,-1321.57"/>
<polygon fill="black" stroke="black" points="13.8551,-1319.82 8.72618,-1321.15 13.5622,-1323.31 13.8551,-1319.82"/>
</g>
<!-- Bow_shape -->
<g id="node41" class="node"><title>Bow_shape</title>
<ellipse fill="black" stroke="black" cx="21.9657" cy="-1201.34" rx="1.8" ry="1.8"/>
</g>
<!-- Bowstring&#45;&gt;Bow_shape -->
<g id="edge44" class="edge"><title>Bowstring&#45;&gt;Bow_shape</title>
<path fill="none" stroke="black" d="M1439.86,-1441.16C1383.87,-1431.69 132.697,-1220.07 28.8164,-1202.5"/>
<polygon fill="black" stroke="black" points="29.0437,-1200.76 23.8218,-1201.65 28.46,-1204.21 29.0437,-1200.76"/>
</g>
<!-- Arbalest -->
<g id="node42" class="node"><title>Arbalest</title>
<ellipse fill="black" stroke="black" cx="47.0402" cy="-1083.37" rx="1.8" ry="1.8"/>
</g>
<!-- Bowstring&#45;&gt;Arbalest -->
<g id="edge45" class="edge"><title>Bowstring&#45;&gt;Arbalest</title>
<path fill="none" stroke="black" d="M1439.9,-1441C1384.9,-1426.87 155.816,-1111.3 53.77,-1085.1"/>
<polygon fill="black" stroke="black" points="54.1418,-1083.39 48.8636,-1083.84 53.2713,-1086.78 54.1418,-1083.39"/>
</g>
<!-- Cable&#45;backed_bow -->
<g id="node43" class="node"><title>Cable&#45;backed_bow</title>
<ellipse fill="black" stroke="black" cx="81.898" cy="-967.916" rx="1.8" ry="1.8"/>
</g>
<!-- Bowstring&#45;&gt;Cable&#45;backed_bow -->
<g id="edge46" class="edge"><title>Bowstring&#45;&gt;Cable&#45;backed_bow</title>
<path fill="none" stroke="black" d="M1439.94,-1440.84C1386.32,-1422.16 187.955,-1004.85 88.4596,-970.201"/>
<polygon fill="black" stroke="black" points="88.9732,-968.527 83.6758,-968.535 87.8222,-971.832 88.9732,-968.527"/>
</g>
<!-- Crossbow -->
<g id="node44" class="node"><title>Crossbow</title>
<ellipse fill="black" stroke="black" cx="126.295" cy="-855.783" rx="1.8" ry="1.8"/>
</g>
<!-- Bowstring&#45;&gt;Crossbow -->
<g id="edge49" class="edge"><title>Bowstring&#45;&gt;Crossbow</title>
<path fill="none" stroke="black" d="M1440,-1440.68C1388.13,-1417.59 228.889,-901.461 132.642,-858.609"/>
<polygon fill="black" stroke="black" points="133.294,-856.984 128.014,-856.549 131.87,-860.182 133.294,-856.984"/>
</g>
<!-- English_longbow -->
<g id="node45" class="node"><title>English_longbow</title>
<ellipse fill="black" stroke="black" cx="179.918" cy="-747.759" rx="1.8" ry="1.8"/>
</g>
<!-- Bowstring&#45;&gt;English_longbow -->
<g id="edge50" class="edge"><title>Bowstring&#45;&gt;English_longbow</title>
<path fill="none" stroke="black" d="M1440.08,-1440.54C1390.32,-1413.18 278.331,-801.862 186.007,-751.106"/>
<polygon fill="black" stroke="black" points="186.793,-749.541 181.568,-748.666 185.106,-752.608 186.793,-749.541"/>
</g>
<!-- Flatbow -->
<g id="node46" class="node"><title>Flatbow</title>
<ellipse fill="black" stroke="black" cx="242.393" cy="-644.6" rx="1.8" ry="1.8"/>
</g>
<!-- Bowstring&#45;&gt;Flatbow -->
<g id="edge51" class="edge"><title>Bowstring&#45;&gt;Flatbow</title>
<path fill="none" stroke="black" d="M1440.16,-1440.4C1392.87,-1408.97 335.933,-706.748 248.181,-648.445"/>
<polygon fill="black" stroke="black" points="249.094,-646.951 243.961,-645.642 247.158,-649.867 249.094,-646.951"/>
</g>
<!-- Gakgung -->
<g id="node47" class="node"><title>Gakgung</title>
<ellipse fill="black" stroke="black" cx="313.281" cy="-547.031" rx="1.8" ry="1.8"/>
</g>
<!-- Bowstring&#45;&gt;Gakgung -->
<g id="edge52" class="edge"><title>Bowstring&#45;&gt;Gakgung</title>
<path fill="none" stroke="black" d="M1440.26,-1440.26C1395.8,-1405.03 403.275,-618.359 318.976,-551.545"/>
<polygon fill="black" stroke="black" points="319.762,-549.935 314.757,-548.201 317.588,-552.678 319.762,-549.935"/>
</g>
<!-- Holmegaard_bow -->
<g id="node48" class="node"><title>Holmegaard_bow</title>
<ellipse fill="black" stroke="black" cx="392.085" cy="-455.736" rx="1.8" ry="1.8"/>
</g>
<!-- Bowstring&#45;&gt;Holmegaard_bow -->
<g id="edge53" class="edge"><title>Bowstring&#45;&gt;Holmegaard_bow</title>
<path fill="none" stroke="black" d="M1440.37,-1440.14C1399.02,-1401.31 475.802,-534.352 397.383,-460.712"/>
<polygon fill="black" stroke="black" points="398.559,-459.415 393.716,-457.268 396.163,-461.966 398.559,-459.415"/>
</g>
<!-- Laminated_bow -->
<g id="node49" class="node"><title>Laminated_bow</title>
<ellipse fill="black" stroke="black" cx="478.252" cy="-371.356" rx="1.8" ry="1.8"/>
</g>
<!-- Bowstring&#45;&gt;Laminated_bow -->
<g id="edge54" class="edge"><title>Bowstring&#45;&gt;Laminated_bow</title>
<path fill="none" stroke="black" d="M1440.48,-1440.02C1402.53,-1397.87 555.09,-456.693 483.114,-376.756"/>
<polygon fill="black" stroke="black" points="484.158,-375.299 479.512,-372.755 481.557,-377.641 484.158,-375.299"/>
</g>
<!-- Longbow -->
<g id="node50" class="node"><title>Longbow</title>
<ellipse fill="black" stroke="black" cx="571.177" cy="-294.481" rx="1.8" ry="1.8"/>
</g>
<!-- Bowstring&#45;&gt;Longbow -->
<g id="edge55" class="edge"><title>Bowstring&#45;&gt;Longbow</title>
<path fill="none" stroke="black" d="M1440.61,-1439.92C1406.28,-1394.69 639.076,-383.934 575.378,-300.015"/>
<polygon fill="black" stroke="black" points="576.732,-298.905 572.315,-295.981 573.945,-301.021 576.732,-298.905"/>
</g>
<!-- Mongol_bow -->
<g id="node51" class="node"><title>Mongol_bow</title>
<ellipse fill="black" stroke="black" cx="670.209" cy="-225.652" rx="1.8" ry="1.8"/>
</g>
<!-- Bowstring&#45;&gt;Mongol_bow -->
<g id="edge56" class="edge"><title>Bowstring&#45;&gt;Mongol_bow</title>
<path fill="none" stroke="black" d="M1440.75,-1439.82C1410.32,-1391.88 730.385,-320.473 673.932,-231.518"/>
<polygon fill="black" stroke="black" points="675.375,-230.525 671.218,-227.241 672.42,-232.401 675.375,-230.525"/>
</g>
<!-- Self_bow -->
<g id="node52" class="node"><title>Self_bow</title>
<ellipse fill="black" stroke="black" cx="774.654" cy="-165.351" rx="1.8" ry="1.8"/>
</g>
<!-- Bowstring&#45;&gt;Self_bow -->
<g id="edge58" class="edge"><title>Bowstring&#45;&gt;Self_bow</title>
<path fill="none" stroke="black" d="M1440.89,-1439.74C1414.58,-1389.42 826.684,-264.875 777.873,-171.508"/>
<polygon fill="black" stroke="black" points="779.393,-170.64 775.526,-167.019 776.292,-172.261 779.393,-170.64"/>
</g>
<!-- Takedown_bow -->
<g id="node53" class="node"><title>Takedown_bow</title>
<ellipse fill="black" stroke="black" cx="883.778" cy="-114.001" rx="1.8" ry="1.8"/>
</g>
<!-- Bowstring&#45;&gt;Takedown_bow -->
<g id="edge59" class="edge"><title>Bowstring&#45;&gt;Takedown_bow</title>
<path fill="none" stroke="black" d="M1441.04,-1439.67C1419.03,-1387.33 927.297,-217.53 886.47,-120.406"/>
<polygon fill="black" stroke="black" points="888.058,-119.668 884.507,-115.737 884.831,-121.024 888.058,-119.668"/>
</g>
<!-- Yumi -->
<g id="node54" class="node"><title>Yumi</title>
<ellipse fill="black" stroke="black" cx="996.816" cy="-71.9628" rx="1.8" ry="1.8"/>
</g>
<!-- Bowstring&#45;&gt;Yumi -->
<g id="edge60" class="edge"><title>Bowstring&#45;&gt;Yumi</title>
<path fill="none" stroke="black" d="M1441.19,-1439.61C1423.65,-1385.61 1031.52,-178.77 998.963,-78.5707"/>
<polygon fill="black" stroke="black" points="1000.61,-77.9676 997.397,-73.7532 997.278,-79.0493 1000.61,-77.9676"/>
</g>
<!-- Arrowhead -->
<g id="node55" class="node"><title>Arrowhead</title>
<ellipse fill="black" stroke="black" cx="1112.97" cy="-39.5306" rx="1.8" ry="1.8"/>
</g>
<!-- Bowstring&#45;&gt;Arrowhead -->
<g id="edge62" class="edge"><title>Bowstring&#45;&gt;Arrowhead</title>
<path fill="none" stroke="black" d="M1441.35,-1439.57C1428.38,-1384.29 1138.62,-148.867 1114.56,-46.295"/>
<polygon fill="black" stroke="black" points="1116.25,-45.8316 1113.4,-41.3633 1112.84,-46.6309 1116.25,-45.8316"/>
</g>
<!-- Bracer -->
<g id="node56" class="node"><title>Bracer</title>
<ellipse fill="black" stroke="black" cx="1231.44" cy="-16.932" rx="1.8" ry="1.8"/>
</g>
<!-- Bowstring&#45;&gt;Bracer -->
<g id="edge63" class="edge"><title>Bowstring&#45;&gt;Bracer</title>
<path fill="none" stroke="black" d="M1441.51,-1439.54C1433.22,-1383.37 1247.85,-128.031 1232.46,-23.8055"/>
<polygon fill="black" stroke="black" points="1234.18,-23.485 1231.72,-18.7943 1230.71,-23.9964 1234.18,-23.485"/>
</g>
<!-- Cresting_machine -->
<g id="node57" class="node"><title>Cresting_machine</title>
<ellipse fill="black" stroke="black" cx="1351.38" cy="-4.3257" rx="1.8" ry="1.8"/>
</g>
<!-- Bowstring&#45;&gt;Cresting_machine -->
<g id="edge64" class="edge"><title>Bowstring&#45;&gt;Cresting_machine</title>
<path fill="none" stroke="black" d="M1441.68,-1439.52C1438.11,-1382.85 1358.43,-116.408 1351.82,-11.26"/>
<polygon fill="black" stroke="black" points="1353.56,-11.0847 1351.5,-6.20448 1350.07,-11.3045 1353.56,-11.0847"/>
</g>
<!-- Finger_tab -->
<g id="node58" class="node"><title>Finger_tab</title>
<ellipse fill="black" stroke="black" cx="1471.96" cy="-1.8" rx="1.8" ry="1.8"/>
</g>
<!-- Bowstring&#45;&gt;Finger_tab -->
<g id="edge65" class="edge"><title>Bowstring&#45;&gt;Finger_tab</title>
<path fill="none" stroke="black" d="M1441.84,-1439.52C1443.03,-1382.75 1469.61,-114.079 1471.81,-8.74648"/>
<polygon fill="black" stroke="black" points="1473.56,-8.71767 1471.92,-3.68209 1470.06,-8.64431 1473.56,-8.71767"/>
</g>
<!-- Fletching -->
<g id="node59" class="node"><title>Fletching</title>
<ellipse fill="black" stroke="black" cx="1592.32" cy="-9.37265" rx="1.8" ry="1.8"/>
</g>
<!-- Bowstring&#45;&gt;Fletching -->
<g id="edge66" class="edge"><title>Bowstring&#45;&gt;Fletching</title>
<path fill="none" stroke="black" d="M1442.01,-1439.53C1447.94,-1383.06 1580.58,-121.061 1591.59,-16.2826"/>
<polygon fill="black" stroke="black" points="1593.34,-16.4004 1592.12,-11.2448 1589.86,-16.0345 1593.34,-16.4004"/>
</g>
<!-- Flu&#45;flu_arrow -->
<g id="node60" class="node"><title>Flu&#45;flu_arrow</title>
<ellipse fill="black" stroke="black" cx="1711.63" cy="-26.9905" rx="1.8" ry="1.8"/>
</g>
<!-- Bowstring&#45;&gt;Flu&#45;flu_arrow -->
<g id="edge67" class="edge"><title>Bowstring&#45;&gt;Flu&#45;flu_arrow</title>
<path fill="none" stroke="black" d="M1442.17,-1439.55C1452.81,-1383.78 1690.59,-137.305 1710.33,-33.8155"/>
<polygon fill="black" stroke="black" points="1712.06,-34.0791 1711.28,-28.8397 1708.62,-33.4232 1712.06,-34.0791"/>
</g>
<!-- Crossbow_bolt -->
<g id="node61" class="node"><title>Crossbow_bolt</title>
<ellipse fill="black" stroke="black" cx="1829.04" cy="-54.5301" rx="1.8" ry="1.8"/>
</g>
<!-- Bowstring&#45;&gt;Crossbow_bolt -->
<g id="edge68" class="edge"><title>Bowstring&#45;&gt;Crossbow_bolt</title>
<path fill="none" stroke="black" d="M1442.33,-1439.59C1457.6,-1384.9 1798.84,-162.697 1827.18,-61.2221"/>
<polygon fill="black" stroke="black" points="1828.88,-61.6297 1828.54,-56.3432 1825.51,-60.6884 1828.88,-61.6297"/>
</g>
<!-- Quiver -->
<g id="node62" class="node"><title>Quiver</title>
<ellipse fill="black" stroke="black" cx="1943.74" cy="-91.7981" rx="1.8" ry="1.8"/>
</g>
<!-- Bowstring&#45;&gt;Quiver -->
<g id="edge69" class="edge"><title>Bowstring&#45;&gt;Quiver</title>
<path fill="none" stroke="black" d="M1442.49,-1439.64C1462.28,-1386.42 1904.6,-197.058 1941.32,-98.3104"/>
<polygon fill="black" stroke="black" points="1942.98,-98.859 1943.09,-93.5626 1939.7,-97.6389 1942.98,-98.859"/>
</g>
<!-- Thumb_ring -->
<g id="node63" class="node"><title>Thumb_ring</title>
<ellipse fill="black" stroke="black" cx="2054.92" cy="-138.533" rx="1.8" ry="1.8"/>
</g>
<!-- Bowstring&#45;&gt;Thumb_ring -->
<g id="edge70" class="edge"><title>Bowstring&#45;&gt;Thumb_ring</title>
<path fill="none" stroke="black" d="M1442.64,-1439.71C1466.81,-1388.33 2007.11,-240.149 2051.96,-144.82"/>
<polygon fill="black" stroke="black" points="2053.58,-145.506 2054.12,-140.237 2050.41,-144.016 2053.58,-145.506"/>
</g>
<!-- Archery_games -->
<g id="node64" class="node"><title>Archery_games</title>
<ellipse fill="black" stroke="black" cx="2161.8" cy="-194.408" rx="1.8" ry="1.8"/>
</g>
<!-- Bowstring&#45;&gt;Archery_games -->
<g id="edge71" class="edge"><title>Bowstring&#45;&gt;Archery_games</title>
<path fill="none" stroke="black" d="M1442.78,-1439.78C1471.17,-1390.61 2105.65,-291.665 2158.33,-200.425"/>
<polygon fill="black" stroke="black" points="2159.87,-201.243 2160.86,-196.038 2156.84,-199.493 2159.87,-201.243"/>
</g>
<!-- Bowfishing -->
<g id="node65" class="node"><title>Bowfishing</title>
<ellipse fill="black" stroke="black" cx="2263.63" cy="-259.029" rx="1.8" ry="1.8"/>
</g>
<!-- Bowstring&#45;&gt;Bowfishing -->
<g id="edge72" class="edge"><title>Bowstring&#45;&gt;Bowfishing</title>
<path fill="none" stroke="black" d="M1442.92,-1439.87C1475.33,-1393.24 2199.53,-351.247 2259.66,-264.735"/>
<polygon fill="black" stroke="black" points="2261.14,-265.68 2262.55,-260.575 2258.26,-263.682 2261.14,-265.68"/>
</g>
<!-- Bowhunting -->
<g id="node66" class="node"><title>Bowhunting</title>
<ellipse fill="black" stroke="black" cx="2359.69" cy="-331.945" rx="1.8" ry="1.8"/>
</g>
<!-- Bowstring&#45;&gt;Bowhunting -->
<g id="edge73" class="edge"><title>Bowstring&#45;&gt;Bowhunting</title>
<path fill="none" stroke="black" d="M1443.05,-1439.97C1479.21,-1396.26 2286.49,-420.425 2355.06,-337.544"/>
<polygon fill="black" stroke="black" points="2356.65,-338.364 2358.49,-333.396 2353.96,-336.133 2356.65,-338.364"/>
</g>
<!-- Clout_archery -->
<g id="node67" class="node"><title>Clout_archery</title>
<ellipse fill="black" stroke="black" cx="2449.32" cy="-412.644" rx="1.8" ry="1.8"/>
</g>
<!-- Bowstring&#45;&gt;Clout_archery -->
<g id="edge74" class="edge"><title>Bowstring&#45;&gt;Clout_archery</title>
<path fill="none" stroke="black" d="M1443.18,-1440.08C1482.86,-1399.55 2368.96,-494.696 2444.23,-417.836"/>
<polygon fill="black" stroke="black" points="2445.5,-419.039 2447.75,-414.242 2443,-416.59 2445.5,-419.039"/>
</g>
<!-- Field_archery -->
<g id="node68" class="node"><title>Field_archery</title>
<ellipse fill="black" stroke="black" cx="2531.87" cy="-500.559" rx="1.8" ry="1.8"/>
</g>
<!-- Bowstring&#45;&gt;Field_archery -->
<g id="edge75" class="edge"><title>Bowstring&#45;&gt;Field_archery</title>
<path fill="none" stroke="black" d="M1443.29,-1440.2C1486.23,-1403.13 2444.95,-575.593 2526.37,-505.307"/>
<polygon fill="black" stroke="black" points="2527.81,-506.38 2530.45,-501.789 2525.52,-503.731 2527.81,-506.38"/>
</g>
<!-- Popinjay_(sport) -->
<g id="node69" class="node"><title>Popinjay_(sport)</title>
<ellipse fill="black" stroke="black" cx="2606.78" cy="-595.073" rx="1.8" ry="1.8"/>
</g>
<!-- Bowstring&#45;&gt;Popinjay_(sport) -->
<g id="edge76" class="edge"><title>Bowstring&#45;&gt;Popinjay_(sport)</title>
<path fill="none" stroke="black" d="M1443.39,-1440.33C1489.33,-1406.95 2515.93,-661.084 2601.16,-599.157"/>
<polygon fill="black" stroke="black" points="2602.25,-600.535 2605.26,-596.18 2600.19,-597.703 2602.25,-600.535"/>
</g>
<!-- Target_archery -->
<g id="node70" class="node"><title>Target_archery</title>
<ellipse fill="black" stroke="black" cx="2673.52" cy="-695.525" rx="1.8" ry="1.8"/>
</g>
<!-- Bowstring&#45;&gt;Target_archery -->
<g id="edge77" class="edge"><title>Bowstring&#45;&gt;Target_archery</title>
<path fill="none" stroke="black" d="M1443.48,-1440.47C1492.05,-1411.05 2577.46,-753.702 2667.58,-699.125"/>
<polygon fill="black" stroke="black" points="2668.54,-700.588 2671.91,-696.5 2666.73,-697.594 2668.54,-700.588"/>
</g>
<!-- World_Archery_Championships -->
<g id="node71" class="node"><title>World_Archery_Championships</title>
<ellipse fill="black" stroke="black" cx="2731.62" cy="-801.21" rx="1.8" ry="1.8"/>
</g>
<!-- Bowstring&#45;&gt;World_Archery_Championships -->
<g id="edge78" class="edge"><title>Bowstring&#45;&gt;World_Archery_Championships</title>
<path fill="none" stroke="black" d="M1443.56,-1440.61C1494.42,-1415.36 2631.03,-851.144 2725.4,-804.299"/>
<polygon fill="black" stroke="black" points="2726.24,-805.837 2729.94,-802.047 2724.68,-802.702 2726.24,-805.837"/>
</g>
<!-- Archery_World_Cup -->
<g id="node72" class="node"><title>Archery_World_Cup</title>
<ellipse fill="black" stroke="black" cx="2780.68" cy="-911.385" rx="1.8" ry="1.8"/>
</g>
<!-- Bowstring&#45;&gt;Archery_World_Cup -->
<g id="edge79" class="edge"><title>Bowstring&#45;&gt;Archery_World_Cup</title>
<path fill="none" stroke="black" d="M1443.63,-1440.76C1496.42,-1419.86 2676.26,-952.727 2774.22,-913.943"/>
<polygon fill="black" stroke="black" points="2774.92,-915.546 2778.93,-912.078 2773.63,-912.291 2774.92,-915.546"/>
</g>
<!-- Archery_at_the_Summer_Olympics -->
<g id="node73" class="node"><title>Archery_at_the_Summer_Olympics</title>
<ellipse fill="black" stroke="black" cx="2820.34" cy="-1025.28" rx="1.8" ry="1.8"/>
</g>
<!-- Bowstring&#45;&gt;Archery_at_the_Summer_Olympics -->
<g id="edge80" class="edge"><title>Bowstring&#45;&gt;Archery_at_the_Summer_Olympics</title>
<path fill="none" stroke="black" d="M1443.68,-1440.92C1498.04,-1424.5 2712.83,-1057.74 2813.69,-1027.29"/>
<polygon fill="black" stroke="black" points="2814.26,-1028.94 2818.54,-1025.82 2813.25,-1025.59 2814.26,-1028.94"/>
</g>
<!-- Archery_at_the_Summer_Paralympics -->
<g id="node74" class="node"><title>Archery_at_the_Summer_Paralympics</title>
<ellipse fill="black" stroke="black" cx="2850.33" cy="-1142.09" rx="1.8" ry="1.8"/>
</g>
<!-- Bowstring&#45;&gt;Archery_at_the_Summer_Paralympics -->
<g id="edge81" class="edge"><title>Bowstring&#45;&gt;Archery_at_the_Summer_Paralympics</title>
<path fill="none" stroke="black" d="M1443.72,-1441.08C1499.26,-1429.27 2740.48,-1165.44 2843.54,-1143.54"/>
<polygon fill="black" stroke="black" points="2843.96,-1145.23 2848.49,-1142.48 2843.24,-1141.81 2843.96,-1145.23"/>
</g>
<!-- Archery_at_the_Youth_Olympic_Games -->
<g id="node75" class="node"><title>Archery_at_the_Youth_Olympic_Games</title>
<ellipse fill="black" stroke="black" cx="2870.45" cy="-1261" rx="1.8" ry="1.8"/>
</g>
<!-- Bowstring&#45;&gt;Archery_at_the_Youth_Olympic_Games -->
<g id="edge82" class="edge"><title>Bowstring&#45;&gt;Archery_at_the_Youth_Olympic_Games</title>
<path fill="none" stroke="black" d="M1443.75,-1441.24C1500.09,-1434.12 2759.03,-1275.08 2863.55,-1261.88"/>
<polygon fill="black" stroke="black" points="2863.84,-1263.6 2868.58,-1261.24 2863.4,-1260.13 2863.84,-1263.6"/>
</g>
<!-- Glossary_of_archery_terms -->
<g id="node76" class="node"><title>Glossary_of_archery_terms</title>
<ellipse fill="black" stroke="black" cx="2880.54" cy="-1381.18" rx="1.8" ry="1.8"/>
</g>
<!-- Bowstring&#45;&gt;Glossary_of_archery_terms -->
<g id="edge83" class="edge"><title>Bowstring&#45;&gt;Glossary_of_archery_terms</title>
<path fill="none" stroke="black" d="M1443.76,-1441.4C1500.5,-1439.02 2768.33,-1385.89 2873.59,-1381.47"/>
<polygon fill="black" stroke="black" points="2873.73,-1383.22 2878.66,-1381.26 2873.59,-1379.72 2873.73,-1383.22"/>
</g>
</g>
</svg>
